<svg width="375" height="64" viewBox="0 0 375 64" fill="none" xmlns="http://www.w3.org/2000/svg">
<rect x="0.761108" y="0.466064" width="374" height="63" rx="31.5" fill="#7583CA"/>
<path d="M45.4387 23.9294H47.6356V20.1031C47.2566 20.0509 45.9531 19.9336 44.435 19.9336C41.2675 19.9336 39.0976 21.926 39.0976 25.5878V28.9579H35.6022V33.2355H39.0976V43.9985H43.3832V33.2365H46.7372L47.2696 28.9589H43.3822V26.012C43.3832 24.7757 43.7161 23.9294 45.4387 23.9294Z" fill="white"/>
<path d="M102.973 31.1481H101.223C100.887 29.8227 100.056 29.1601 98.7306 29.1601C97.732 29.1601 96.9573 29.5567 96.4066 30.3501C95.9306 31.0407 95.6926 31.9134 95.6926 32.9681C95.6926 34.0227 95.9306 34.8954 96.4066 35.5861C96.9573 36.3794 97.732 36.7761 98.7306 36.7761C99.4773 36.7761 100.079 36.5194 100.537 36.0061C100.957 35.5394 101.204 34.9234 101.279 34.1581H102.987C102.912 35.3621 102.483 36.3374 101.699 37.0841C100.924 37.8307 99.9346 38.2041 98.7306 38.2041C97.2746 38.2041 96.1033 37.6861 95.2166 36.6501C94.3673 35.6701 93.9426 34.4427 93.9426 32.9681C93.9426 31.4841 94.3673 30.2521 95.2166 29.2721C96.1033 28.2454 97.2746 27.7321 98.7306 27.7321C99.8786 27.7321 100.84 28.0307 101.615 28.6281C102.417 29.2534 102.87 30.0934 102.973 31.1481ZM109.534 27.7321C110.99 27.7321 112.161 28.2454 113.048 29.2721C113.897 30.2614 114.322 31.4934 114.322 32.9681C114.322 34.4427 113.897 35.6701 113.048 36.6501C112.161 37.6861 110.99 38.2041 109.534 38.2041C108.078 38.2041 106.907 37.6861 106.02 36.6501C105.171 35.6701 104.746 34.4427 104.746 32.9681C104.746 31.4934 105.171 30.2614 106.02 29.2721C106.907 28.2454 108.078 27.7321 109.534 27.7321ZM109.534 29.1601C108.535 29.1601 107.761 29.5567 107.21 30.3501C106.734 31.0407 106.496 31.9134 106.496 32.9681C106.496 34.0227 106.734 34.8954 107.21 35.5861C107.761 36.3794 108.535 36.7761 109.534 36.7761C110.533 36.7761 111.307 36.3794 111.858 35.5861C112.334 34.8954 112.572 34.0227 112.572 32.9681C112.572 31.9134 112.334 31.0407 111.858 30.3501C111.307 29.5567 110.533 29.1601 109.534 29.1601ZM116.545 37.9661V27.9701H118.393L122.957 35.3341H122.985V27.9701H124.651V37.9661H122.803L118.253 30.6161H118.211V37.9661H116.545ZM126.466 29.4821V27.9701H134.558V29.4821H131.38V37.9661H129.63V29.4821H126.466ZM136.417 37.9661V27.9701H138.167V37.9661H136.417ZM140.944 37.9661V27.9701H142.792L147.356 35.3341H147.384V27.9701H149.05V37.9661H147.202L142.652 30.6161H142.61V37.9661H140.944ZM151.705 34.3681V27.9701H153.455V33.7941C153.455 34.6994 153.563 35.3481 153.777 35.7401C154.123 36.3747 154.799 36.6921 155.807 36.6921C156.815 36.6921 157.492 36.3747 157.837 35.7401C158.052 35.3481 158.159 34.6994 158.159 33.7941V27.9701H159.909V34.3681C159.909 35.6187 159.536 36.5801 158.789 37.2521C158.071 37.8867 157.077 38.2041 155.807 38.2041C154.538 38.2041 153.549 37.8867 152.839 37.2521C152.083 36.5801 151.705 35.6187 151.705 34.3681ZM162.621 37.9661V27.9701H169.817V29.4821H164.371V32.1001H169.411V33.5281H164.371V36.4541H169.915V37.9661H162.621ZM178.388 37.9661L175.756 27.9701H177.534L179.34 35.6141H179.368L181.384 27.9701H183.176L185.136 35.6141H185.164L187.026 27.9701H188.804L186.046 37.9661H184.268L182.266 30.3221H182.238L180.194 37.9661H178.388ZM190.656 37.9661V27.9701H192.406V37.9661H190.656ZM194.301 29.4821V27.9701H202.393V29.4821H199.215V37.9661H197.465V29.4821H194.301ZM204.21 37.9661V27.9701H205.96V31.9461H210.51V27.9701H212.26V37.9661H210.51V33.4581H205.96V37.9661H204.21ZM219.652 37.9661V27.9701H226.554V29.4821H221.402V32.1001H225.924V33.5281H221.402V37.9661H219.652ZM232.22 29.6921L230.708 33.9901H233.76L232.262 29.6921H232.22ZM227.488 37.9661L231.324 27.9701H233.186L237.036 37.9661H235.16L234.222 35.3201H230.232L229.294 37.9661H227.488ZM247.186 31.1481H245.436C245.1 29.8227 244.27 29.1601 242.944 29.1601C241.946 29.1601 241.171 29.5567 240.62 30.3501C240.144 31.0407 239.906 31.9134 239.906 32.9681C239.906 34.0227 240.144 34.8954 240.62 35.5861C241.171 36.3794 241.946 36.7761 242.944 36.7761C243.691 36.7761 244.293 36.5194 244.75 36.0061C245.17 35.5394 245.418 34.9234 245.492 34.1581H247.2C247.126 35.3621 246.696 36.3374 245.912 37.0841C245.138 37.8307 244.148 38.2041 242.944 38.2041C241.488 38.2041 240.317 37.6861 239.43 36.6501C238.581 35.6701 238.156 34.4427 238.156 32.9681C238.156 31.4841 238.581 30.2521 239.43 29.2721C240.317 28.2454 241.488 27.7321 242.944 27.7321C244.092 27.7321 245.054 28.0307 245.828 28.6281C246.631 29.2534 247.084 30.0934 247.186 31.1481ZM249.492 37.9661V27.9701H256.688V29.4821H251.242V32.1001H256.282V33.5281H251.242V36.4541H256.786V37.9661H249.492ZM260.76 33.4161V36.5381H263.854C264.974 36.5381 265.534 36.0107 265.534 34.9561C265.534 33.9294 264.974 33.4161 263.854 33.4161H260.76ZM259.01 37.9661V27.9701H263.868C264.792 27.9701 265.516 28.1801 266.038 28.6001C266.57 29.0201 266.836 29.6361 266.836 30.4481C266.836 31.4561 266.36 32.1654 265.408 32.5761V32.6041C266.659 32.8747 267.284 33.7334 267.284 35.1801C267.284 36.0107 266.995 36.6687 266.416 37.1541C265.772 37.6954 264.834 37.9661 263.602 37.9661H259.01ZM260.76 29.3981V32.1561H263.616C264.046 32.1561 264.396 32.0347 264.666 31.7921C264.946 31.5494 265.086 31.2087 265.086 30.7701C265.086 29.8554 264.596 29.3981 263.616 29.3981H260.76ZM273.824 27.7321C275.28 27.7321 276.451 28.2454 277.338 29.2721C278.187 30.2614 278.612 31.4934 278.612 32.9681C278.612 34.4427 278.187 35.6701 277.338 36.6501C276.451 37.6861 275.28 38.2041 273.824 38.2041C272.368 38.2041 271.196 37.6861 270.31 36.6501C269.46 35.6701 269.036 34.4427 269.036 32.9681C269.036 31.4934 269.46 30.2614 270.31 29.2721C271.196 28.2454 272.368 27.7321 273.824 27.7321ZM273.824 29.1601C272.825 29.1601 272.05 29.5567 271.5 30.3501C271.024 31.0407 270.786 31.9134 270.786 32.9681C270.786 34.0227 271.024 34.8954 271.5 35.5861C272.05 36.3794 272.825 36.7761 273.824 36.7761C274.822 36.7761 275.597 36.3794 276.148 35.5861C276.624 34.8954 276.862 34.0227 276.862 32.9681C276.862 31.9134 276.624 31.0407 276.148 30.3501C275.597 29.5567 274.822 29.1601 273.824 29.1601ZM285.16 27.7321C286.616 27.7321 287.788 28.2454 288.674 29.2721C289.524 30.2614 289.948 31.4934 289.948 32.9681C289.948 34.4427 289.524 35.6701 288.674 36.6501C287.788 37.6861 286.616 38.2041 285.16 38.2041C283.704 38.2041 282.533 37.6861 281.646 36.6501C280.797 35.6701 280.372 34.4427 280.372 32.9681C280.372 31.4934 280.797 30.2614 281.646 29.2721C282.533 28.2454 283.704 27.7321 285.16 27.7321ZM285.16 29.1601C284.162 29.1601 283.387 29.5567 282.836 30.3501C282.36 31.0407 282.122 31.9134 282.122 32.9681C282.122 34.0227 282.36 34.8954 282.836 35.5861C283.387 36.3794 284.162 36.7761 285.16 36.7761C286.159 36.7761 286.934 36.3794 287.484 35.5861C287.96 34.8954 288.198 34.0227 288.198 32.9681C288.198 31.9134 287.96 31.0407 287.484 30.3501C286.934 29.5567 286.159 29.1601 285.16 29.1601ZM292.241 37.9661V27.9701H293.991V32.5201L298.443 27.9701H300.599L296.609 31.9601L300.879 37.9661H298.695L295.419 33.1921L293.991 34.6061V37.9661H292.241Z" fill="#F6F1FB"/>
</svg>
