<svg width="375" height="64" viewBox="0 0 375 64" fill="none" xmlns="http://www.w3.org/2000/svg">
<rect x="0.238892" y="0.633301" width="374" height="63" rx="31.5" fill="#8E97FD"/>
<path d="M145.721 32.8693V38.1333H144.601L144.335 36.9573C143.877 37.48 143.415 37.8486 142.949 38.0633C142.491 38.2686 141.95 38.3713 141.325 38.3713C139.869 38.3713 138.697 37.8533 137.811 36.8173C136.961 35.8373 136.537 34.61 136.537 33.1353C136.537 31.6606 136.961 30.4286 137.811 29.4393C138.697 28.4126 139.869 27.8993 141.325 27.8993C142.463 27.8993 143.415 28.1886 144.181 28.7673C145.002 29.374 145.478 30.2233 145.609 31.3153H143.901C143.817 30.6806 143.523 30.186 143.019 29.8313C142.552 29.4953 141.987 29.3273 141.325 29.3273C140.326 29.3273 139.551 29.724 139.001 30.5173C138.525 31.208 138.287 32.0806 138.287 33.1353C138.287 34.19 138.525 35.0626 139.001 35.7533C139.542 36.5373 140.317 36.934 141.325 36.9433C142.211 36.9526 142.893 36.7146 143.369 36.2293C143.854 35.7346 144.106 35.058 144.125 34.1993H141.465V32.8693H145.721ZM148.322 38.1333V28.1373H155.518V29.6493H150.072V32.2673H155.112V33.6953H150.072V36.6213H155.616V38.1333H148.322ZM156.888 29.6493V28.1373H164.98V29.6493H161.802V38.1333H160.052V29.6493H156.888ZM170.834 34.8013H172.584C172.584 35.5293 172.831 36.08 173.326 36.4533C173.764 36.78 174.362 36.9433 175.118 36.9433C175.836 36.9433 176.382 36.7846 176.756 36.4673C177.073 36.1966 177.232 35.8513 177.232 35.4313C177.232 34.8153 176.956 34.4046 176.406 34.1993C176.331 34.1713 175.337 33.896 173.424 33.3733C171.949 32.972 171.212 32.1273 171.212 30.8393C171.212 29.8966 171.594 29.1546 172.36 28.6133C173.041 28.1373 173.876 27.8993 174.866 27.8993C175.958 27.8993 176.858 28.17 177.568 28.7113C178.324 29.2993 178.702 30.0926 178.702 31.0913H176.952C176.877 29.9153 176.158 29.3273 174.796 29.3273C174.31 29.3273 173.904 29.416 173.578 29.5933C173.167 29.8266 172.962 30.172 172.962 30.6293C172.962 31.2733 173.358 31.7026 174.152 31.9173C174.945 32.1226 175.906 32.3793 177.036 32.6873C177.661 32.874 178.151 33.2193 178.506 33.7233C178.823 34.1806 178.982 34.6846 178.982 35.2353C178.982 36.2806 178.566 37.0833 177.736 37.6433C177.017 38.1286 176.107 38.3713 175.006 38.3713C173.792 38.3713 172.817 38.0866 172.08 37.5173C171.268 36.892 170.852 35.9866 170.834 34.8013ZM180.262 29.6493V28.1373H188.354V29.6493H185.176V38.1333H183.426V29.6493H180.262ZM193.782 29.8593L192.27 34.1573H195.322L193.824 29.8593H193.782ZM189.05 38.1333L192.886 28.1373H194.748L198.598 38.1333H196.722L195.784 35.4873H191.794L190.856 38.1333H189.05ZM202 29.5653V32.6873H204.87C206.009 32.6873 206.578 32.1553 206.578 31.0913C206.578 30.074 206 29.5653 204.842 29.5653H202ZM200.25 38.1333V28.1373H205.024C206.107 28.1373 206.928 28.3753 207.488 28.8513C208.048 29.318 208.328 29.9806 208.328 30.8393C208.328 32.1366 207.778 32.9766 206.676 33.3593V33.3873C207.666 33.5273 208.16 34.232 208.16 35.5013C208.16 36.864 208.342 37.7413 208.706 38.1333H206.83C206.653 37.844 206.564 37.354 206.564 36.6633C206.564 35.702 206.434 35.03 206.172 34.6473C205.883 34.2273 205.351 34.0173 204.576 34.0173H202V38.1333H200.25ZM209.856 29.6493V28.1373H217.948V29.6493H214.77V38.1333H213.02V29.6493H209.856ZM219.807 38.1333V28.1373H227.003V29.6493H221.557V32.2673H226.597V33.6953H221.557V36.6213H227.101V38.1333H219.807ZM231.075 29.5653V36.7053H232.797C234.066 36.7053 234.967 36.36 235.499 35.6693C235.919 35.1093 236.129 34.2646 236.129 33.1353C236.129 32.006 235.919 31.1613 235.499 30.6013C234.967 29.9106 234.066 29.5653 232.797 29.5653H231.075ZM229.325 38.1333V28.1373H233.469C234.934 28.1373 236.054 28.6273 236.829 29.6073C237.529 30.4846 237.879 31.6606 237.879 33.1353C237.879 34.61 237.529 35.786 236.829 36.6633C236.054 37.6433 234.934 38.1333 233.469 38.1333H229.325Z" fill="#F6F1FB"/>
</svg>
