<svg width="415" height="351" viewBox="0 0 415 351" fill="none" xmlns="http://www.w3.org/2000/svg">
<path d="M109.249 103.001C94.2789 43.1805 38.3485 2.18273 -23.2239 5.8879C-30.0385 6.29736 -36.0379 1.44009 -37.0739 -5.30389L-41.3105 -32.8257C-42.4871 -40.4609 -36.8932 -47.4457 -29.1872 -48.0318C-9.54647 -49.5251 10.0259 -47.8431 29.1687 -43.01C52.1022 -37.2174 73.4375 -27.1616 92.5843 -13.1277C111.731 0.906193 127.738 18.2278 140.158 38.3513C150.526 55.1511 158.008 73.3036 162.489 92.4798C164.248 100.003 159.261 107.433 151.623 108.609L124.087 112.844C117.341 113.884 110.904 109.621 109.249 103.001Z" fill="#FAF8F5"/>
<path d="M277.525 58.8936C338.535 49.7932 384.776 -1.88251 387.049 -63.5016C387.302 -70.3218 392.719 -75.8174 399.533 -76.1987L427.346 -77.7482C435.06 -78.1778 441.477 -71.9356 441.313 -64.2161C440.895 -44.5301 437.329 -25.2215 430.659 -6.64345C422.672 15.6117 410.593 35.8677 394.763 53.5586C378.933 71.2495 360.136 85.4962 338.897 95.9052C321.167 104.592 302.366 110.28 282.842 112.882C275.184 113.901 268.265 108.221 267.835 100.51L266.285 72.7067C265.912 65.8945 270.775 59.9012 277.525 58.8936Z" fill="#FAF8F5"/>
<path d="M317.403 179.206C348.845 232.251 414.156 255.56 472.101 234.412C478.513 232.072 485.65 235.009 488.571 241.178L500.495 266.343C503.8 273.322 500.44 281.615 493.224 284.379C474.828 291.422 455.593 295.407 435.867 296.243C412.235 297.245 388.917 293.709 366.556 285.73C344.195 277.751 323.908 265.725 306.258 249.991C291.524 236.854 279.163 221.6 269.391 204.502C265.559 197.797 268.213 189.25 275.194 185.94L300.368 174.013C306.539 171.091 313.927 173.336 317.403 179.206Z" fill="#FAF8F5"/>
</svg>
