<svg width="375" height="64" viewBox="0 0 375 64" fill="none" xmlns="http://www.w3.org/2000/svg">
<rect x="0.761108" y="0.46582" width="374" height="63" rx="31.5" fill="#8E97FD"/>
<path d="M162.924 37.9658V27.9698H164.674V36.4538H169.756V37.9658H162.924ZM175.919 27.7318C177.375 27.7318 178.547 28.2452 179.433 29.2718C180.283 30.2612 180.707 31.4932 180.707 32.9678C180.707 34.4425 180.283 35.6698 179.433 36.6498C178.547 37.6858 177.375 38.2038 175.919 38.2038C174.463 38.2038 173.292 37.6858 172.405 36.6498C171.556 35.6698 171.131 34.4425 171.131 32.9678C171.131 31.4932 171.556 30.2612 172.405 29.2718C173.292 28.2452 174.463 27.7318 175.919 27.7318ZM175.919 29.1598C174.921 29.1598 174.146 29.5565 173.595 30.3498C173.119 31.0405 172.881 31.9132 172.881 32.9678C172.881 34.0225 173.119 34.8952 173.595 35.5858C174.146 36.3792 174.921 36.7758 175.919 36.7758C176.918 36.7758 177.693 36.3792 178.243 35.5858C178.719 34.8952 178.957 34.0225 178.957 32.9678C178.957 31.9132 178.719 31.0405 178.243 30.3498C177.693 29.5565 176.918 29.1598 175.919 29.1598ZM191.722 32.7018V37.9658H190.602L190.336 36.7898C189.879 37.3125 189.417 37.6812 188.95 37.8958C188.493 38.1012 187.951 38.2038 187.326 38.2038C185.87 38.2038 184.699 37.6858 183.812 36.6498C182.963 35.6698 182.538 34.4425 182.538 32.9678C182.538 31.4932 182.963 30.2612 183.812 29.2718C184.699 28.2452 185.87 27.7318 187.326 27.7318C188.465 27.7318 189.417 28.0212 190.182 28.5998C191.003 29.2065 191.479 30.0558 191.61 31.1478H189.902C189.818 30.5132 189.524 30.0185 189.02 29.6638C188.553 29.3278 187.989 29.1598 187.326 29.1598C186.327 29.1598 185.553 29.5565 185.002 30.3498C184.526 31.0405 184.288 31.9132 184.288 32.9678C184.288 34.0225 184.526 34.8952 185.002 35.5858C185.543 36.3698 186.318 36.7665 187.326 36.7758C188.213 36.7852 188.894 36.5472 189.37 36.0618C189.855 35.5672 190.107 34.8905 190.126 34.0318H187.466V32.7018H191.722ZM198.919 37.9658V27.9698H200.669V37.9658H198.919ZM203.446 37.9658V27.9698H205.294L209.858 35.3338H209.886V27.9698H211.552V37.9658H209.704L205.154 30.6158H205.112V37.9658H203.446Z" fill="#F6F1FB"/>
</svg>
